<?xml version="1.0" encoding="utf-8"?>
<!-- Generator: Adobe Illustrator 24.1.3, SVG Export Plug-In . SVG Version: 6.00 Build 0)  -->
<svg version="1.1" id="Layer_1" xmlns="http://www.w3.org/2000/svg" xmlns:xlink="http://www.w3.org/1999/xlink" x="0px" y="0px"
	 viewBox="0 0 240 290" style="enable-background:new 0 0 240 290;" xml:space="preserve">
<style type="text/css">
	.st0{fill:#FFFFFF;}
</style>
<g>
	<circle cx="120" cy="105.4" r="26.3"/>
	<path d="M177.2,6H62.8C32.5,6,7.6,30.9,7.6,61.2v167.6c0,30.3,24.8,55.1,55.1,55.1h47.7V149.7c-20.4-4.4-35.8-22.6-35.8-44.3
		c0-25,20.3-45.3,45.3-45.3s45.3,20.3,45.3,45.3c0,21.7-15.4,39.9-35.8,44.3v57.1H156v19h-26.5v19.6H156v19h-26.5V284h47.7
		c30.3,0,55.1-24.8,55.1-55.1V61.2C232.4,30.9,207.5,6,177.2,6z"/>
	<path class="st0" d="M156,264.5v-19h-26.5v-19.6H156v-19h-26.5v-57.1c20.4-4.4,35.8-22.6,35.8-44.3c0-25-20.3-45.3-45.3-45.3
		s-45.3,20.3-45.3,45.3c0,21.7,15.4,39.9,35.8,44.3V284h19v-19.5H156z M120,131.7c-14.5,0-26.3-11.8-26.3-26.3s11.8-26.3,26.3-26.3
		s26.3,11.8,26.3,26.3S134.5,131.7,120,131.7z"/>
</g>
</svg>
